<svg width="1290" height="2796" viewBox="0 0 1290 2796" fill="none" xmlns="http://www.w3.org/2000/svg">
  <rect width="1290" height="2796" fill="#0F1115"/>
  <text x="120" y="220" font-family="Inter, Helvetica, Arial, sans-serif" font-size="56" fill="#E9ECF2">Good afternoon, Kai 👋</text>
  <text x="120" y="300" font-family="Inter, Helvetica, Arial, sans-serif" font-size="42" fill="#E9ECF2" fill-opacity="0.72">Pick a vibe to set the tone for today’s nudges.</text>
  <rect x="120" y="420" width="1050" height="420" rx="32" fill="#1A1D22" stroke="#3C414A" stroke-width="2"/>
  <text x="160" y="520" font-family="Inter, Helvetica, Arial, sans-serif" font-size="60" font-weight="700" fill="#E9ECF2">Settle into calm focus</text>
  <text x="160" y="600" font-family="Inter, Helvetica, Arial, sans-serif" font-size="40" fill="#E9ECF2" fill-opacity="0.72">Soft instrumental playlists and mindful breaks keep your pod grounded.</text>
  <g font-family="Inter, Helvetica, Arial, sans-serif" font-size="36" font-weight="600" fill="#7C87FF">
    <rect x="160" y="660" width="220" height="78" rx="39" fill="#2A2F3A"/>
    <text x="188" y="715">Calm focus</text>
    <rect x="400" y="660" width="268" height="78" rx="39" fill="#2A2F3A"/>
    <text x="428" y="715">Joyful momentum</text>
    <rect x="688" y="660" width="248" height="78" rx="39" fill="#2A2F3A"/>
    <text x="716" y="715">Gentle reset</text>
    <rect x="956" y="660" width="214" height="78" rx="39" fill="#2A2F3A"/>
    <text x="984" y="715">Bold sprint</text>
  </g>
  <rect x="120" y="930" width="1050" height="140" rx="28" fill="#7C87FF" fill-opacity="0.12"/>
  <text x="160" y="1018" font-family="Inter, Helvetica, Arial, sans-serif" font-size="40" font-weight="600" fill="#E9ECF2">Open task picker   ⌃</text>
  <text x="120" y="1180" font-family="Inter, Helvetica, Arial, sans-serif" font-size="48" font-weight="700" fill="#E9ECF2">Today’s nudges</text>
  <rect x="120" y="1260" width="1050" height="220" rx="28" fill="#1A1D22" stroke="#3C414A" stroke-width="2"/>
  <rect x="120" y="1510" width="1050" height="220" rx="28" fill="#1A1D22" stroke="#3C414A" stroke-width="2"/>
  <rect x="120" y="1760" width="1050" height="220" rx="28" fill="#1A1D22" stroke="#3C414A" stroke-width="2"/>
  <text x="220" y="1340" font-family="Inter, Helvetica, Arial, sans-serif" font-size="42" font-weight="600" fill="#E9ECF2">Publish weekly check-in</text>
  <text x="220" y="1590" font-family="Inter, Helvetica, Arial, sans-serif" font-size="42" font-weight="600" fill="#E9ECF2">Prep progress snapshot</text>
  <text x="220" y="1840" font-family="Inter, Helvetica, Arial, sans-serif" font-size="42" font-weight="600" fill="#E9ECF2">Plan playful micro-break</text>
</svg>
